<svg width="26" height="26" viewBox="0 0 26 26" fill="none" xmlns="http://www.w3.org/2000/svg">
<g id="Group 595">
<g id="Vector">
<path fill-rule="evenodd" clip-rule="evenodd" d="M1.99967 19.0406L0.21582 25.5539L6.88119 23.806C8.71779 24.8076 10.7854 25.3354 12.8895 25.3363H12.895C19.8245 25.3363 25.4655 19.6969 25.4686 12.7669C25.4698 9.40804 24.1628 6.25008 21.7893 3.8742C19.415 1.49832 16.2583 0.189446 12.895 0.187805C5.96419 0.187805 0.32414 5.8262 0.321321 12.7567C0.320615 14.972 0.899455 17.1345 1.99967 19.0406ZM2.44429 12.7574C2.44641 6.99726 7.13438 2.31099 12.899 2.31099C15.6905 2.31217 18.3141 3.40011 20.2873 5.37471C22.2605 7.34932 23.3464 9.97435 23.3454 12.7659C23.343 18.5265 18.6551 23.2133 12.8949 23.2133H12.891C11.0153 23.2123 9.17607 22.7089 7.5719 21.7568L7.18996 21.5304L3.23457 22.5675L4.29058 18.7126L4.0419 18.3174C2.99584 16.6539 2.44344 14.7313 2.44429 12.7574Z" fill="white"/>
<path fill-rule="evenodd" clip-rule="evenodd" d="M9.75256 7.50195C9.51707 6.97892 9.26933 6.96833 9.04561 6.95914C8.8624 6.95137 8.65281 6.95184 8.44346 6.95184C8.23387 6.95184 7.89358 7.0305 7.60581 7.34488C7.31781 7.65926 6.50607 8.41919 6.50607 9.96496C6.50607 11.5107 7.63195 13.0042 7.78879 13.2141C7.94586 13.4236 9.96215 16.697 13.1557 17.9562C15.8094 19.0027 16.3494 18.7945 16.9256 18.7422C17.5017 18.69 18.7844 17.9823 19.046 17.2487C19.3079 16.5152 19.3079 15.8867 19.2295 15.7552C19.1508 15.6241 18.9415 15.5457 18.6271 15.3886C18.3129 15.2315 16.7683 14.4713 16.4803 14.3666C16.1923 14.2618 15.983 14.2095 15.7734 14.5239C15.564 14.8382 14.9623 15.5457 14.7789 15.7552C14.5957 15.9651 14.4125 15.9912 14.0981 15.8341C13.7839 15.6766 12.772 15.3453 11.5717 14.2749C10.6378 13.4422 10.0074 12.4138 9.82391 12.0995C9.6407 11.7851 9.80437 11.6151 9.96191 11.4585C10.103 11.3176 10.2761 11.0916 10.4334 10.9081C10.59 10.7247 10.6425 10.5937 10.747 10.3844C10.8518 10.1746 10.7996 9.9911 10.7209 9.83403C10.6425 9.67696 10.0319 8.12318 9.75256 7.50195Z" fill="white"/>
</g>
</g>
</svg>
